<svg width="70" height="70" viewBox="0 0 70 70" fill="none" xmlns="http://www.w3.org/2000/svg">
<rect width="70" height="70" rx="35" fill="#5050CE" fill-opacity="0.6"/>
<path d="M24.1149 27.3939C24.1149 33.4437 29.1288 38.3656 35.2917 38.3656C41.4546 38.3656 46.4684 33.4437 46.4684 27.3939C46.4684 21.3441 41.4546 16.4222 35.2917 16.4222C29.1288 16.4222 24.1149 21.3441 24.1149 27.3939ZM43.9847 27.3939C43.9847 32.0993 40.085 35.9274 35.2917 35.9274C30.4983 35.9274 26.5987 32.0993 26.5987 27.3939C26.5987 22.6885 30.4983 18.8604 35.2917 18.8604C40.085 18.8604 43.9847 22.6885 43.9847 27.3939Z" fill="white"/>
<path d="M58.1419 15.9346C58.8278 15.9346 59.3838 15.3888 59.3838 14.7155C59.3838 14.0422 58.8278 13.4964 58.1419 13.4964C57.4561 13.4964 56.9001 14.0422 56.9001 14.7155C56.9001 15.3888 57.4561 15.9346 58.1419 15.9346Z" fill="white"/>
<path d="M35.2917 65.9167C52.9142 65.9167 67.0833 51.9062 67.0833 34.7083C67.0833 28.9825 65.493 23.3851 62.4846 18.5212C62.1287 17.9458 61.3651 17.7626 60.7785 18.1118C60.1922 18.4613 60.0056 19.2111 60.3616 19.7866C63.1341 24.269 64.5996 29.4289 64.5996 34.7083C64.5996 43.0502 61.0267 50.7874 54.7298 56.2473C52.8129 47.3714 44.7954 40.8037 35.2917 40.8037C25.7879 40.8037 17.7696 47.3721 15.8547 56.2484C9.55706 50.7879 5.98372 43.0503 5.98372 34.7083C5.98372 18.8444 19.1312 5.93815 35.2917 5.93815C41.8722 5.93815 48.0867 8.0246 53.2634 11.9721C53.805 12.3851 54.5852 12.2888 55.006 11.7572C55.4267 11.2255 55.3287 10.4596 54.787 10.0466C49.1706 5.7637 42.4292 3.5 35.2917 3.5C26.7929 3.5 18.8074 6.74469 12.8061 12.6362C6.80497 18.5275 3.5 26.3662 3.5 34.7083C3.5 51.9496 17.7142 65.9167 35.2917 65.9167V65.9167ZM35.2917 43.2419C44.0713 43.2419 51.359 49.5372 52.519 57.9935C47.4951 61.5841 41.5543 63.4785 35.2917 63.4785C29.0297 63.4785 23.0896 61.5838 18.0657 57.9932C19.2241 49.5369 26.5111 43.2419 35.2917 43.2419V43.2419Z" fill="white"/>
</svg>
