<svg width="35" height="40" viewBox="0 0 35 40" fill="none" xmlns="http://www.w3.org/2000/svg">
<path d="M0.958904 40C0.429589 40 0 39.638 0 39.1902V34.2924C0 31.6459 2.00411 29.3218 4.9863 28.5087L9.38288 27.5782C9.89685 27.4689 10.4175 27.7329 10.546 28.167C10.6745 28.601 10.3619 29.0408 9.84795 29.1493L5.5137 30.0652C3.38781 30.6474 1.91781 32.3513 1.91781 34.2932V39.191C1.91781 39.638 1.48822 40 0.958904 40Z" fill="#665FD6"/>
<path d="M34.0411 40C33.5108 40 33.0822 39.638 33.0822 39.1902V34.2924C33.0822 32.3521 31.6122 30.6467 29.4239 30.0498L25.1022 29.1291C24.5891 29.0189 24.2785 28.5784 24.4069 28.1451C24.5374 27.7111 25.059 27.4479 25.572 27.558L29.9532 28.4934C32.9958 29.321 35 31.646 35 34.2916V39.1894C35 39.638 34.5713 40 34.0411 40Z" fill="#665FD6"/>
<path d="M12.9999 35.044C12.9193 35.044 12.8378 35.035 12.7582 35.018C12.4801 34.9565 12.25 34.7945 12.1301 34.5743L9.26494 29.3429C8.78836 28.4723 9.06741 27.4374 9.94384 26.8268L11.0053 26.0874C11.3803 25.8275 11.9269 25.8428 12.2788 26.1271L18.1741 30.8912C18.3793 31.0572 18.4867 31.2921 18.4685 31.5318C18.4484 31.7715 18.3045 31.991 18.0734 32.1319L13.5637 34.8901C13.3969 34.9913 13.1993 35.044 12.9999 35.044ZM11.5673 27.7945L11.1636 28.0763C10.9593 28.2188 10.8941 28.461 11.0053 28.6642L13.3815 33.0016L16.0166 31.3901L11.5673 27.7945Z" fill="#665FD6"/>
<path d="M22.0184 35.0439C21.818 35.0439 21.6214 34.9913 21.4555 34.89L16.9467 32.1318C16.7166 31.9909 16.5718 31.7714 16.5526 31.5317C16.5325 31.292 16.6408 31.0572 16.846 30.8912L22.7404 26.127C23.0914 25.842 23.6399 25.8258 24.0129 26.0874L25.0754 26.8267C25.9528 27.4389 26.2308 28.4731 25.7533 29.3428L22.8881 34.5742C22.7682 34.7937 22.5381 34.9564 22.261 35.018C22.1804 35.035 22.0989 35.0439 22.0184 35.0439ZM19.0026 31.3892L21.6367 33.0007L24.0138 28.6626C24.1251 28.4593 24.0599 28.218 23.8556 28.0746L23.4519 27.7936L19.0026 31.3892Z" fill="#665FD6"/>
<path d="M18.3793 36.5161H16.6245C15.7864 36.5161 15.0385 36.0667 14.7633 35.3978L13.9319 33.3757L15.7442 32.8444L16.5756 34.8666L18.3793 34.8965L19.2759 32.8404L21.0853 33.3797L20.2377 35.4067C19.9596 36.0699 19.2126 36.5161 18.3793 36.5161Z" fill="#665FD6"/>
<path d="M14.8342 40C14.7527 40 14.6703 39.9911 14.5878 39.9733C14.0758 39.8583 13.7708 39.4153 13.907 38.9821L15.0021 35.4975C15.1382 35.0658 15.6647 34.8091 16.1748 34.9225C16.6868 35.0375 16.9918 35.4805 16.8556 35.9137L15.7605 39.3983C15.6464 39.7603 15.259 40 14.8342 40Z" fill="#665FD6"/>
<path d="M20.1648 40C19.7409 40 19.3526 39.7603 19.2385 39.3983L18.1434 35.9137C18.0072 35.4812 18.3131 35.0375 18.8242 34.9225C19.3353 34.8083 19.8608 35.0658 19.9979 35.4974L21.093 38.9821C21.2292 39.4145 20.9233 39.8583 20.4122 39.9733C20.3297 39.9919 20.2463 40 20.1648 40Z" fill="#665FD6"/>
<path d="M7.13523 40C6.60591 40 6.17632 39.638 6.17632 39.1902V37.4013C6.17632 36.9535 6.60591 36.5915 7.13523 36.5915C7.66454 36.5915 8.09413 36.9535 8.09413 37.4013V39.1902C8.09413 39.638 7.66454 40 7.13523 40Z" fill="#665FD6"/>
<path d="M27.8648 40C27.3345 40 26.9059 39.638 26.9059 39.1902V37.4013C26.9059 36.9535 27.3345 36.5915 27.8648 36.5915C28.3951 36.5915 28.8237 36.9535 28.8237 37.4013V39.1902C28.8237 39.638 28.3941 40 27.8648 40Z" fill="#665FD6"/>
<path d="M18.2086 39.1861C17.9631 39.1861 17.7177 39.1068 17.5307 38.9488C17.1557 38.6322 17.1557 38.1204 17.5307 37.8038L18.5145 36.9729C18.8894 36.6563 19.4955 36.6563 19.8704 36.9729C20.2453 37.2895 20.2453 37.8013 19.8704 38.118L18.8866 38.9488C18.6996 39.1076 18.4541 39.1861 18.2086 39.1861Z" fill="#665FD6"/>
<path d="M20.6567 25.3715H14.3625C13.3048 25.3715 12.4447 24.6451 12.4447 23.7519V21.6286H14.3625V23.7519H20.6567V21.6286H22.5745V23.7519C22.5745 24.6443 21.7144 25.3715 20.6567 25.3715Z" fill="#665FD6"/>
<path d="M22.2428 22.4383H20.0373C19.507 22.4383 19.0784 22.0764 19.0784 21.6285C19.0784 21.1807 19.507 20.8187 20.0373 20.8187H21.6003C21.7278 19.2129 22.4 17.6953 23.5248 16.4967C24.6074 15.3428 25.1799 13.9539 25.1799 12.4801C25.1799 10.6717 24.3198 8.99299 22.7567 7.75559C21.1947 6.5182 19.1522 5.89707 17.0043 6.01611C13.2502 6.21857 10.1817 8.75572 9.86716 11.918C9.70606 13.5361 10.2546 15.1314 11.4119 16.4085C12.6182 17.7406 13.3077 19.2566 13.4228 20.8195H16.5507C17.08 20.8195 17.5096 21.1815 17.5096 21.6293C17.5096 22.0772 17.08 22.4392 16.5507 22.4392H12.7755C12.0841 22.4392 11.5222 21.9646 11.5222 21.3807V21.2876C11.5222 19.919 10.9574 18.5715 9.88825 17.3916C8.44031 15.7938 7.75373 13.8009 7.9551 11.7804C8.34921 7.82524 12.1867 4.65157 16.8815 4.3981C19.5646 4.25476 22.1162 5.02652 24.0685 6.57326C25.994 8.09815 27.0977 10.2514 27.0977 12.4792C27.0977 14.3224 26.3824 16.0586 25.0293 17.5025C24.0407 18.5553 23.4961 19.9328 23.4961 21.3807C23.4961 21.9638 22.9341 22.4383 22.2428 22.4383Z" fill="#665FD6"/>
<path d="M12.3804 13.0356C12.3535 13.0356 12.3267 13.0348 12.2989 13.0331C11.7715 12.9959 11.3793 12.6039 11.4234 12.1577C11.6746 9.63758 14.1198 7.61629 17.1107 7.45432C17.6246 7.41788 18.0945 7.76448 18.129 8.2115C18.1626 8.65771 17.7618 9.04237 17.2324 9.07152C15.1823 9.18166 13.5071 10.5672 13.3355 12.2938C13.2923 12.7157 12.8733 13.0356 12.3804 13.0356Z" fill="#665FD6"/>
<path d="M18.7121 27.6536H16.3071C15.7778 27.6536 15.3482 27.2916 15.3482 26.8438C15.3482 26.3959 15.7778 26.0339 16.3071 26.0339H18.7121C19.2423 26.0339 19.671 26.3959 19.671 26.8438C19.671 27.2916 19.2414 27.6536 18.7121 27.6536Z" fill="#665FD6"/>
<path d="M17.4808 2.97283C16.9515 2.97283 16.5219 2.61003 16.5219 2.16302V0.809815C16.5219 0.362797 16.9515 0 17.4808 0C18.0101 0 18.4397 0.362797 18.4397 0.809815V2.16302C18.4397 2.61003 18.0101 2.97283 17.4808 2.97283Z" fill="#665FD6"/>
<path d="M5.21262 14.0381H3.61029C3.08097 14.0381 2.65138 13.6753 2.65138 13.2283C2.65138 12.7813 3.08097 12.4185 3.61029 12.4185H5.21262C5.74193 12.4185 6.17152 12.7813 6.17152 13.2283C6.17152 13.6753 5.74193 14.0381 5.21262 14.0381Z" fill="#665FD6"/>
<path d="M31.2881 14.0381H29.6858C29.1555 14.0381 28.7269 13.6753 28.7269 13.2283C28.7269 12.7813 29.1555 12.4185 29.6858 12.4185H31.2881C31.8184 12.4185 32.247 12.7813 32.247 13.2283C32.247 13.6753 31.8184 14.0381 31.2881 14.0381Z" fill="#665FD6"/>
<path d="M7.39891 7.22434C7.15343 7.22434 6.90795 7.14498 6.72097 6.98707L5.58754 6.02986C5.21261 5.71323 5.21261 5.20142 5.58754 4.88479C5.96247 4.56815 6.5685 4.56815 6.94343 4.88479L8.07686 5.84199C8.45179 6.15863 8.45179 6.67043 8.07686 6.98707C7.88987 7.14498 7.64439 7.22434 7.39891 7.22434Z" fill="#665FD6"/>
<path d="M27.6203 7.22434C27.3748 7.22434 27.1293 7.14498 26.9423 6.98707C26.5674 6.67043 26.5674 6.15863 26.9423 5.84199L28.0757 4.88479C28.4507 4.56815 29.0567 4.56815 29.4316 4.88479C29.8066 5.20142 29.8066 5.71323 29.4316 6.02986L28.2982 6.98707C28.1103 7.14498 27.8657 7.22434 27.6203 7.22434Z" fill="#665FD6"/>
<path d="M6.26549 20.8941C6.02001 20.8941 5.77453 20.8147 5.58754 20.6568C5.21261 20.341 5.21261 19.8284 5.58754 19.5117L6.72097 18.5545C7.09494 18.2379 7.70193 18.2379 8.07686 18.5545C8.45179 18.8704 8.45179 19.383 8.07686 19.6996L6.94343 20.6568C6.75645 20.8155 6.51097 20.8941 6.26549 20.8941Z" fill="#665FD6"/>
<path d="M28.7527 20.8941C28.5072 20.8941 28.2618 20.8147 28.0748 20.6568L26.9414 19.6996C26.5664 19.383 26.5664 18.8704 26.9414 18.5545C27.3163 18.2379 27.9223 18.2379 28.2972 18.5545L29.4307 19.5117C29.8056 19.8284 29.8056 20.341 29.4307 20.6568C29.2437 20.8155 28.9982 20.8941 28.7527 20.8941Z" fill="#665FD6"/>
</svg>
