<svg width="40" height="40" viewBox="0 0 40 40" fill="none" xmlns="http://www.w3.org/2000/svg">
<path d="M39.6921 36.0052L22.1903 1.4035C21.7456 0.525241 20.9263 0 20 0C19.0737 0 18.2545 0.525241 17.8097 1.4035L0.307916 36.0052C-0.11607 36.8486 -0.101695 37.8434 0.347916 38.6678C0.80073 39.5026 1.6055 40 2.4998 40H37.5002C38.3945 40 39.1993 39.5026 39.6521 38.6678C40.1016 37.8434 40.1161 36.8486 39.6921 36.0052ZM19.6049 13.9496C19.7392 13.9252 19.872 13.9131 20.0032 13.9131C21.1552 13.9131 22.1711 14.8087 22.3664 16.0696C22.4128 16.3565 22.4079 16.6487 22.3664 16.92L20.7888 27.1061C20.7231 27.527 20.384 27.826 20.0016 27.826C19.9584 27.826 19.912 27.8226 19.8688 27.8139C19.5216 27.7513 19.2656 27.4591 19.2112 27.1061L17.6337 16.92C17.4145 15.5131 18.2993 14.1826 19.6049 13.9496ZM20 34.7826C18.6769 34.7826 17.6001 33.6122 17.6001 32.1739C17.6001 30.7355 18.6768 29.5652 20 29.5652C21.3232 29.5652 22.3999 30.7356 22.3999 32.1739C22.3999 33.6121 21.3231 34.7826 20 34.7826Z" fill="#665FD6"/>
</svg>
