<svg width="40" height="35" viewBox="0 0 40 35" fill="none" xmlns="http://www.w3.org/2000/svg">
<path d="M26.7444 18.1715L24.8162 14.9108L20.8608 22.3072C20.6516 22.6982 20.2632 22.9385 19.844 22.9385C19.834 22.9385 19.824 22.9384 19.8139 22.938C19.3832 22.9262 18.9933 22.6623 18.7985 22.2506L14.0058 12.1202L11.7055 17.9859C11.5228 18.4519 11.0969 18.7551 10.6251 18.7551H4.36304C4.47468 18.8863 4.58929 19.0153 4.70726 19.1416L19.1715 34.6324C19.4003 34.8774 19.7002 35 20.0001 35C20.2999 35 20.5999 34.8775 20.8287 34.6324L35.2929 19.1416C35.4108 19.0153 35.5255 18.8863 35.6371 18.7551H27.7344C27.3329 18.7551 26.9593 18.5348 26.7444 18.1715Z" fill="#665FD6"/>
<path d="M12.8258 8.647C13.0027 8.19602 13.408 7.89615 13.8645 7.87875C14.3192 7.86068 14.7452 8.12951 14.9516 8.56576L19.9069 19.04L23.7487 11.8561C23.9529 11.4743 24.3288 11.2348 24.7395 11.225C25.1506 11.2157 25.5358 11.4365 25.7556 11.8082L28.3793 16.245H37.2517C37.9762 14.7028 38.3594 12.9895 38.3594 11.2129C38.3594 8.21786 37.2703 5.40204 35.2929 3.2842C33.3154 1.16635 30.6862 0 27.8896 0C25.093 0 22.4638 1.16635 20.4863 3.2842L20 3.80504L19.5137 3.28428C17.5362 1.16644 14.907 8.36236e-05 12.1104 8.36236e-05C9.31375 8.36236e-05 6.68461 1.16644 4.70711 3.2842C2.72969 5.40204 1.64062 8.21786 1.64062 11.2129C1.64062 12.9894 2.02383 14.7028 2.74828 16.245H9.84617L12.8258 8.647Z" fill="#665FD6"/>
<path d="M1.17188 16.245C0.524687 16.245 0 16.8069 0 17.5C0 18.1931 0.524687 18.7551 1.17188 18.7551H4.36297C3.71344 17.9915 3.17227 17.1477 2.74828 16.245H1.17188Z" fill="#665FD6"/>
<path d="M38.8281 16.245H37.2517C36.8276 17.1477 36.2865 17.9915 35.637 18.7551H38.8281C39.4752 18.7551 39.9999 18.1931 39.9999 17.5C39.9999 16.8069 39.4752 16.245 38.8281 16.245Z" fill="#665FD6"/>
</svg>
