<svg width="35" height="40" viewBox="0 0 35 40" fill="none" xmlns="http://www.w3.org/2000/svg">
<path d="M29.5455 3.125H22.6885C21.938 1.30617 19.9159 0 17.5455 0C15.175 0 13.1529 1.30617 12.4025 3.125H5.45455C2.44691 3.125 0 5.22781 0 7.8125V35.3125C0 37.8972 2.44691 40 5.45627 40L29.5511 39.9801C32.5556 39.9774 35 37.8746 35 35.2926V7.8125C35 5.22781 32.5531 3.125 29.5455 3.125ZM12.0909 6.25H15.7273V4.6875C15.7273 3.82594 16.5429 3.125 17.5455 3.125C18.548 3.125 19.3636 3.82594 19.3636 4.6875V6.25H23V9.29688H12.0909V6.25ZM31.3636 35.2926C31.3636 36.1533 30.5488 36.8542 29.5475 36.8551L5.45455 36.875C4.452 36.875 3.63636 36.1741 3.63636 35.3125V7.8125C3.63636 6.95094 4.452 6.25 5.45455 6.25H8.45455V12.4219H26.6364V6.25H29.5455C30.548 6.25 31.3636 6.95094 31.3636 7.8125V35.2926Z" fill="#665FD6"/>
<path d="M19.3637 17.5H15.7273V22.9688H9.36367V26.0938H15.7273V31.5625H19.3637V26.0938H25.7273V22.9688H19.3637V17.5Z" fill="#665FD6"/>
</svg>
