<svg width="40" height="40" viewBox="0 0 40 40" fill="none" xmlns="http://www.w3.org/2000/svg">
<path d="M34.0446 2.44594H33.0603V0.9375C33.0603 0.68886 32.9551 0.450403 32.7679 0.274587C32.5806 0.098772 32.3266 0 32.0618 0C31.7969 0 31.543 0.098772 31.3557 0.274587C31.1684 0.450403 31.0632 0.68886 31.0632 0.9375V2.44594H8.93678V0.9375C8.93678 0.68886 8.83158 0.450403 8.64431 0.274587C8.45704 0.098772 8.20306 0 7.93822 0C7.67339 0 7.4194 0.098772 7.23213 0.274587C7.04487 0.450403 6.93966 0.68886 6.93966 0.9375V2.44594H5.95541C4.37649 2.44761 2.86274 3.03723 1.74627 4.08543C0.629801 5.13363 0.00178399 6.55481 0 8.03719V34.4088C0.00178399 35.8911 0.629801 37.3123 1.74627 38.3605C2.86274 39.4087 4.37649 39.9983 5.95541 40H34.0446C35.6235 39.9983 37.1373 39.4087 38.2537 38.3605C39.3702 37.3123 39.9982 35.8911 40 34.4088V8.03719C39.9982 6.55481 39.3702 5.13363 38.2537 4.08543C37.1373 3.03723 35.6235 2.44761 34.0446 2.44594ZM5.95541 4.32094H6.93966V6.44984C6.93966 6.69848 7.04487 6.93694 7.23213 7.11276C7.4194 7.28857 7.67339 7.38734 7.93822 7.38734C8.20306 7.38734 8.45704 7.28857 8.64431 7.11276C8.83158 6.93694 8.93678 6.69848 8.93678 6.44984V4.32094H31.0632V6.44984C31.0632 6.69848 31.1684 6.93694 31.3557 7.11276C31.543 7.28857 31.7969 7.38734 32.0618 7.38734C32.3266 7.38734 32.5806 7.28857 32.7679 7.11276C32.9551 6.93694 33.0603 6.69848 33.0603 6.44984V4.32094H34.0446C35.094 4.32203 36.1002 4.71392 36.8422 5.41061C37.5843 6.10731 38.0017 7.05191 38.0029 8.03719V12.9127H1.99712V8.03719C1.99829 7.05191 2.4157 6.10731 3.15777 5.41061C3.89984 4.71392 4.90597 4.32203 5.95541 4.32094ZM34.0446 38.125H5.95541C4.90597 38.1239 3.89986 37.732 3.15779 37.0353C2.41573 36.3386 1.99831 35.394 1.99712 34.4088V14.7877H38.0029V34.4088C38.0017 35.394 37.5843 36.3386 36.8422 37.0353C36.1001 37.732 35.094 38.1239 34.0446 38.125ZM27.2573 30.2609V25.3547C27.2552 23.8904 26.7517 22.4656 25.821 21.2906C24.8902 20.1156 23.5817 19.2528 22.0887 18.8295C22.1783 18.5272 22.1922 18.2095 22.1294 17.9012C22.0666 17.593 21.9286 17.3026 21.7264 17.0526C21.5242 16.8027 21.2632 16.6001 20.9637 16.4606C20.6643 16.3211 20.3345 16.2486 20.0002 16.2486C19.666 16.2486 19.3362 16.3211 19.0368 16.4606C18.7373 16.6001 18.4763 16.8027 18.2741 17.0526C18.0719 17.3026 17.9339 17.593 17.8711 17.9012C17.8083 18.2095 17.8222 18.5272 17.9118 18.8295C16.4187 19.2528 15.1101 20.1156 14.1793 21.2907C13.2485 22.4657 12.745 23.8906 12.743 25.355V30.2612L11.8404 31.729C11.6973 31.9618 11.6219 32.2258 11.6219 32.4946C11.6219 32.7634 11.6973 33.0275 11.8404 33.2603C11.9836 33.493 12.1895 33.6863 12.4375 33.8207C12.6854 33.9551 12.9667 34.0259 13.253 34.0259H17.3415C17.3389 34.0713 17.3374 34.117 17.3374 34.1629C17.3374 34.8259 17.618 35.4618 18.1173 35.9307C18.6167 36.3995 19.294 36.6629 20.0002 36.6629C20.7065 36.6629 21.3838 36.3995 21.8832 35.9307C22.3825 35.4618 22.6631 34.8259 22.6631 34.1629C22.6631 34.117 22.6615 34.0713 22.6589 34.0259H26.7475C27.0338 34.0259 27.3151 33.9551 27.563 33.8207C27.811 33.6863 28.0169 33.493 28.16 33.2603C28.3032 33.0275 28.3786 32.7634 28.3786 32.4946C28.3786 32.2258 28.3032 31.9618 28.1601 31.729L27.2573 30.2609ZM20 18.125C20.0338 18.125 20.0668 18.1344 20.0948 18.152C20.1229 18.1696 20.1448 18.1946 20.1577 18.2239C20.1706 18.2532 20.174 18.2854 20.1674 18.3165C20.1608 18.3476 20.1446 18.3761 20.1207 18.3985C20.0968 18.4209 20.0664 18.4362 20.0333 18.4424C20.0002 18.4486 19.9659 18.4454 19.9347 18.4333C19.9035 18.4211 19.8768 18.4006 19.8581 18.3743C19.8393 18.3479 19.8293 18.3169 19.8293 18.2852C19.8299 18.2429 19.8481 18.2025 19.88 18.1725C19.9118 18.1426 19.9549 18.1255 20 18.125ZM20.6657 34.1625C20.6657 34.2504 20.646 34.3373 20.6078 34.4176C20.5696 34.4978 20.5138 34.5696 20.4441 34.6283C20.3743 34.6869 20.2922 34.7311 20.203 34.7579C20.1138 34.7847 20.0196 34.7935 19.9266 34.7838C19.8335 34.7741 19.7437 34.7461 19.6629 34.7016C19.5822 34.6571 19.5124 34.5971 19.458 34.5255C19.4036 34.454 19.366 34.3724 19.3474 34.2863C19.3289 34.2001 19.33 34.1112 19.3505 34.0255H20.6491C20.66 34.0705 20.6655 34.1164 20.6657 34.1626V34.1625ZM13.8867 32.1505L14.6061 30.9808C14.6937 30.8383 14.7399 30.6766 14.7398 30.512V25.355C14.7398 24.0452 15.294 22.7891 16.2805 21.8629C17.267 20.9368 18.6049 20.4165 20 20.4165C21.3951 20.4165 22.733 20.9368 23.7195 21.8629C24.706 22.7891 25.2602 24.0452 25.2602 25.355V30.5122C25.2602 30.6767 25.3063 30.8384 25.3939 30.9809L26.1132 32.1505L13.8867 32.1505Z" fill="#665FD6"/>
</svg>
