<svg width="35" height="35" viewBox="0 0 35 35" fill="none" xmlns="http://www.w3.org/2000/svg">
<path d="M33.4092 15.8695C32.5309 15.8695 31.8184 15.2164 31.8184 14.4113C31.8184 10.3206 30.0811 6.4765 26.9262 3.58298C26.3043 3.01287 26.3043 2.09135 26.9262 1.52098C27.5482 0.950872 28.5538 0.950872 29.1757 1.52098C32.9321 4.96405 35 9.54199 35 14.4113C35 15.2164 34.2875 15.8695 33.4092 15.8695Z" fill="#665FD6"/>
<path d="M1.59082 15.8695C0.712823 15.8695 0 15.2164 0 14.4113C0 9.54199 2.06827 4.96405 5.82435 1.52098C6.44629 0.950872 7.45187 0.950872 8.07381 1.52098C8.69604 2.09135 8.69604 3.01287 8.07381 3.58298C4.91898 6.4749 3.18192 10.3206 3.18192 14.4113C3.18192 15.2164 2.4691 15.8695 1.59082 15.8695Z" fill="#665FD6"/>
<path d="M32.4214 24.6649C30.0158 22.8011 28.6365 20.0768 28.6365 17.1908V13.125C28.6365 7.99324 24.4778 3.74508 19.091 3.03345V1.45824C19.091 0.651817 18.3782 0 17.5002 0C16.6219 0 15.9091 0.651817 15.9091 1.45824V3.03345C10.5208 3.74508 6.36359 7.99324 6.36359 13.125V17.1908C6.36359 20.0768 4.98426 22.8011 2.56468 24.6764C1.94566 25.1621 1.59085 25.8679 1.59085 26.6145C1.59085 28.022 2.83968 29.1668 4.37514 29.1668H30.6252C32.1604 29.1668 33.4092 28.022 33.4092 26.6145C33.4092 25.8679 33.0544 25.1621 32.4214 24.6649Z" fill="#665FD6"/>
<path d="M17.5002 35C20.3812 35 22.7914 33.1172 23.3452 30.625H11.6552C12.2086 33.1172 14.6189 35 17.5002 35Z" fill="#665FD6"/>
</svg>
