<svg width="15" height="15" viewBox="0 0 15 15" fill="none" xmlns="http://www.w3.org/2000/svg">
<path d="M7.5 3.74301C5.42837 3.74301 3.74302 5.42869 3.74302 7.50032C3.74302 9.57196 5.42837 11.2576 7.5 11.2576C9.5713 11.2576 11.257 9.57229 11.257 7.50032C11.257 5.42835 9.5713 3.74301 7.5 3.74301Z" fill="#665FD6"/>
<path d="M7.5 2.63862C7.09511 2.63862 6.76694 2.31045 6.76694 1.90589V0.73306C6.76694 0.328166 7.09511 0 7.5 0C7.9049 0 8.23306 0.328166 8.23306 0.73306V1.90589C8.23306 2.31045 7.90456 2.63862 7.5 2.63862Z" fill="#665FD6"/>
<path d="M7.5 12.3611C7.09511 12.3611 6.76694 12.6892 6.76694 13.0941V14.2666C6.76694 14.6718 7.09511 15 7.5 15C7.9049 15 8.23306 14.6718 8.23306 14.2666V13.0941C8.23306 12.6892 7.90456 12.3611 7.5 12.3611Z" fill="#665FD6"/>
<path d="M10.9371 4.06254C10.6511 3.77623 10.6511 3.31221 10.9371 3.0259L11.7665 2.19651C12.0525 1.91053 12.5168 1.91053 12.8031 2.19651C13.0895 2.48283 13.0895 2.94718 12.8031 3.23316L11.9738 4.06254C11.6878 4.34886 11.2238 4.34886 10.9371 4.06254Z" fill="#665FD6"/>
<path d="M4.06255 10.9378C3.77624 10.6511 3.31222 10.6511 3.02591 10.9378L2.19652 11.7668C1.91054 12.0528 1.91021 12.5175 2.19652 12.8035C2.48284 13.0894 2.94719 13.0894 3.23317 12.8035L4.06255 11.9737C4.34887 11.6878 4.34887 11.2234 4.06255 10.9378Z" fill="#665FD6"/>
<path d="M12.361 7.5C12.361 7.0951 12.6892 6.76694 13.0941 6.76694H14.2669C14.6718 6.76694 15 7.0951 15 7.5C15 7.90489 14.6718 8.23273 14.2669 8.23273H13.0941C12.6892 8.23273 12.361 7.90489 12.361 7.5Z" fill="#665FD6"/>
<path d="M2.63861 7.5C2.63861 7.0951 2.31044 6.76694 1.90555 6.76694H0.733051C0.328157 6.76694 -9.53674e-06 7.0951 -9.53674e-06 7.5C-9.53674e-06 7.90489 0.328157 8.23273 0.733051 8.23273H1.90588C2.31044 8.23273 2.63861 7.90489 2.63861 7.5Z" fill="#665FD6"/>
<path d="M10.9371 10.9378C11.2234 10.6518 11.6878 10.6518 11.9738 10.9378L12.8031 11.7672C13.0895 12.0528 13.0895 12.5175 12.8031 12.8035C12.5168 13.0895 12.0528 13.0895 11.7665 12.8035L10.9371 11.9741C10.6508 11.6878 10.6508 11.2238 10.9371 10.9378Z" fill="#665FD6"/>
<path d="M4.06256 4.06255C4.34887 3.77624 4.34887 3.31222 4.06256 3.02591L3.23317 2.19685C2.94686 1.91054 2.48284 1.91054 2.19652 2.19685C1.91021 2.48284 1.91021 2.94719 2.19652 3.23317L3.02591 4.06255C3.31222 4.3492 3.77624 4.3492 4.06256 4.06255Z" fill="#665FD6"/>
</svg>
